<svg id="Layer_1" data-name="Layer 1" xmlns="http://www.w3.org/2000/svg" viewBox="0 0 105.99 81.72"><defs><style>.cls-1{fill:#ffbc13;}.cls-2{fill:#1f4845;}</style></defs><title>logo</title><path class="cls-1" d="M148.33,92.34a1,1,0,0,0-1.25,1c0,.6.71,5.46,1.65,7.19,0,.2,0,.39.05.58s0,.1,0,.15a10.48,10.48,0,0,1-5.93,2.28c-3.67.32-2.82,2.06-5.39,3.92-2,1.44-5.12.57-6.86,1.87.12-.08-1.36,2.78-1.38,2.8a9.54,9.54,0,0,1-1.84,1.75c-2.73,2.07-6.14,2.89-8.86,5s-4.53,5.14-7,7.55a32.2,32.2,0,0,1-7,4.91c-5.41,2.95-9.14,2.47-14-1.3-5.83-4.47-7.46-12-13.43-16-4.24-2.83-5.89-5.91-6.75-10.39a.81.81,0,0,1-.16-.16c-.51-.59-1-1.77-1.61-2.28-.24-1.15-1-1.54-2.3-1.17l-1.11.15c-1.59-.06-3.16,0-4.36-1.32-1.6-1.73-2.08-5.26-3.1-7.27A16.77,16.77,0,0,0,51,84.24a14.61,14.61,0,0,1-1.33-.88,2.43,2.43,0,0,1-.53-2.57A2.32,2.32,0,0,0,49.44,79a1,1,0,0,0-1.92,0,2.83,2.83,0,0,1-.23.73.92.92,0,0,0-.13.24l-.06.17a.05.05,0,0,1,0,0,2.78,2.78,0,0,0-.36.5,1.49,1.49,0,0,0-.08.43,1.79,1.79,0,0,0-.13.32,3.37,3.37,0,0,0-.14,1,6.15,6.15,0,0,0,.17,4.28,13.81,13.81,0,0,0,1,1.91c.37,1.51,1.64,2.5,3.42,3.56a16.77,16.77,0,0,1,6.62,7.4c1,2,1.5,5.54,3.1,7.27,1.2,1.3,2.77,1.26,4.36,1.32l1.11-.15c1.29-.37,2.06,0,2.3,1.17.56.51,1.1,1.69,1.61,2.28a.81.81,0,0,0,.16.16c.86,4.48,2.51,7.56,6.75,10.39,6,4,7.6,11.48,13.43,16,4.91,3.77,8.64,4.25,14,1.3a32.2,32.2,0,0,0,7-4.91c2.51-2.41,4.28-5.38,7-7.55s6.13-3,8.86-5a9.54,9.54,0,0,0,1.84-1.75s1.5-2.88,1.38-2.8c1.74-1.3,4.87-.43,6.86-1.87,2.57-1.86,1.72-3.6,5.39-3.92,3.37-.3,6.7-1.84,7.73-4.94,0,0,0,0,0-.06C151.76,103,154.08,93.14,148.33,92.34Z" transform="translate(-46.07 -59.53)"/><path class="cls-2" d="M150.85,95.3c-.84-6.11-10.37-4.79-8.15-12.39a2.51,2.51,0,0,0-1.14-2.8c-3-1.57-6.89-1-8.38,2.38-.4.89-.23,1.88-.55,2.75-1,2.67-4.47,3.13-5.51.25-.74-2.08,1-4.22-.35-6.41a3.71,3.71,0,0,0-3.42-1.89c-3.36.27-1.43,2.88-5.49,1.27-3.07-1.21-1.86-.88-3.22-2.79a4.61,4.61,0,0,0-1.47-1.38c-1.11-.69-2.69-.67-3.94-1a18.73,18.73,0,0,1-4.5-2,2.37,2.37,0,0,0-.44-.61,9.81,9.81,0,0,0-3.93-2.31,5.1,5.1,0,0,0-4.55-1.91c-3.21.19-7.13,1-10.31.49-2.68-.44-3.93-2.92-6-4.54-5.58-4.46-12-3.1-17.94-.24a7,7,0,0,0-.77.43,22.28,22.28,0,0,0-3.8.86,2.5,2.5,0,0,0-1.73,3.05,7.41,7.41,0,0,1-.23,5.75c-2,3.62-1.79,1-3.89,2-1.79.77-2.56,1.17-3.27,3.13-1.34,3.71.23,5.22,3,6.89a16.77,16.77,0,0,1,6.62,7.4c1,2,1.5,5.54,3.1,7.27,1.2,1.3,2.77,1.26,4.36,1.32l1.11-.15c1.29-.37,2.06,0,2.3,1.17.56.51,1.1,1.69,1.61,2.28a.81.81,0,0,0,.16.16c.86,4.48,2.51,7.56,6.75,10.39,6,4,7.6,11.48,13.43,16,4.91,3.77,8.64,4.25,14,1.3a32.2,32.2,0,0,0,7-4.91c2.51-2.41,4.28-5.38,7-7.55s6.13-3,8.86-5a9.54,9.54,0,0,0,1.84-1.75s1.5-2.88,1.38-2.8c1.74-1.3,4.87-.43,6.86-1.87,2.57-1.86,1.72-3.6,5.39-3.92C147.27,103.1,151.59,100.62,150.85,95.3Z" transform="translate(-46.07 -59.53)"/></svg>